<?xml version="1.0" encoding="utf-8"?>
<!-- Uploaded to: SVG Repo, www.svgrepo.com, Generator: SVG Repo Mixer Tools -->
<svg width="800px" height="800px" viewBox="0 0 1024 1024" class="icon"  version="1.1" xmlns="http://www.w3.org/2000/svg"><path d="M845 521.4c7.6 14.1 22.2 22.9 38.2 22.9 6.7 0 12.2 5.5 12.2 12.2v105.3c0 15-12.3 27.2-27.3 27.2h-30.7c-8.9-25-32.8-43.2-60.9-43.2-28.2 0-52.1 18.2-60.9 43.2H375.2c-8.9-25-32.8-43.2-60.9-43.2-28.2 0-52.1 18.2-60.9 43.2h-73.3v-84.2h476.5v-191H775c7.8 0 14.9 4.3 18.5 11.2l51.5 96.4z" fill="#936844" /><path d="M776.5 657.1c29.3 0 53.3 23.9 53.3 53.3s-24 53.3-53.3 53.3c-29.4 0-53.3-23.9-53.3-53.3s23.9-53.3 53.3-53.3zM314.3 657.1c29.3 0 53.3 23.9 53.3 53.3s-24 53.3-53.3 53.3c-29.4 0-53.3-23.9-53.3-53.3s23.9-53.3 53.3-53.3z" fill="#633D18" /><path d="M776.5 763.7c29.3 0 53.3-23.9 53.3-53.3s-24-53.3-53.3-53.3c-29.4 0-53.3 23.9-53.3 53.3s23.9 53.3 53.3 53.3zM253.4 689c8.8-25 32.7-43.2 60.9-43.2 28.1 0 52 18.2 60.9 43.2h340.5c8.8-25 32.7-43.2 60.9-43.2 28.1 0 52 18.2 60.9 43.2h30.7c15 0 27.3-12.2 27.3-27.2V556.5c0-6.7-5.5-12.2-12.2-12.2-16 0-30.7-8.8-38.2-22.9l-51.4-96.5c-3.6-6.9-10.7-11.2-18.5-11.2H656.7v191H180.1V689h73.3z m60.9 86c-35.6 0-64.6-29-64.6-64.6 0-3.4 0.3-6.8 0.8-10.1h-81.6V593.5h476.5v-191H775c12 0 22.9 6.5 28.5 17.1l51.4 96.5c5.5 10.5 16.3 16.9 28.2 16.9 12.9 0 23.4 10.6 23.4 23.4v105.3c0 21.2-17.4 38.4-38.6 38.4h-27.8c0.5 3.4 0.9 6.8 0.9 10.1 0 35.6-29.1 64.6-64.6 64.6-35.6 0-64.6-29-64.6-64.6 0-3.4 0.3-6.8 0.8-10.1H378c0.5 3.4 0.9 6.8 0.9 10.1 0 35.8-29.1 64.8-64.6 64.8zM261 710.4c0 29.4 23.9 53.3 53.3 53.3 29.3 0 53.3-23.9 53.3-53.3s-24-53.3-53.3-53.3c-29.4 0-53.3 23.9-53.3 53.3z" fill="#422B12" /><path d="M590.6 400.6v36.8c0 8.1-6.6 14.7-14.7 14.7H571v125.3c0 8.1-6.6 14.7-14.7 14.7H348.1c-8.1 0-14.7-6.6-14.7-14.7V452.1h-4.9c-8.1 0-14.7-6.6-14.7-14.7v-36.8c0-8.1 6.6-14.7 14.7-14.7h46.7c-9.7-5.5-16.2-15.9-16.2-27.8 0-17.7 14.4-32 32-32 10.8 0 18.5 3.3 26.2 10.3-1.7-5.9-1.8-12.3-0.1-18.5 2.4-8.6 8-15.9 15.3-20.1 7.4-4.3 16.1-5.4 24.3-3.2 8.3 2.2 15.2 7.5 19.5 14.9 6.4 11.1 7.4 22.5 2.8 35.7 10.8-13.2 19.8-19.2 34.4-19.2 17.7 0 32 14.4 32 32 0 11.9-6.6 22.3-16.2 27.8h46.7c8.1 0 14.7 6.6 14.7 14.8z m-4.2 36.8v-36.8c0-5.8-4.7-10.5-10.5-10.5H472.5V448h103.4c5.8-0.1 10.5-4.8 10.5-10.6z m-19.7 140V452.1h-94.3V588h83.8c5.8 0 10.5-4.8 10.5-10.6zM541.2 358c0-15.4-12.5-27.8-27.8-27.8-16 0-24.8 8.4-38.4 27.2l-18.8 28.5h57.3c15.2-0.1 27.7-12.6 27.7-27.9z m-72.9 0c10.8-18.8 12.1-32.8 4.1-46.5-3.7-6.4-9.7-11-16.9-13-2.4-0.6-4.8-1-7.2-1-4.8 0-9.6 1.3-13.9 3.7-6.4 3.7-11.2 10.1-13.3 17.6-2.1 7.5-1.2 15.5 2.4 21.8l28.2 41.8 16.6-24.4z m-0.1 230V390h-33.3v198h33.3z m-20-202.2l-18.9-28.6c-13.6-18.7-22.4-27.1-38.4-27.1-15.3 0-27.8 12.5-27.8 27.8s12.5 27.8 27.8 27.8h57.3zM430.6 588V452.1h-93.1v125.3c0 5.8 4.7 10.5 10.5 10.5h82.6z m0-140.1V390H328.4c-5.8 0-10.5 4.7-10.5 10.5v36.8c0 5.8 4.7 10.5 10.5 10.5h102.2z" fill="#EF4668" /><path d="M586.4 400.6v36.8c0 5.8-4.7 10.5-10.5 10.5H472.4V390h103.4c5.9 0 10.6 4.8 10.6 10.6z" fill="#FFF0C2" /><path d="M566.7 452.1v125.3c0 5.8-4.7 10.5-10.5 10.5h-83.8V452.1h94.3z" fill="#FFE085" /><path d="M513.3 330.1c15.4 0 27.8 12.5 27.8 27.8s-12.5 27.8-27.8 27.8H456l18.8-28.5c13.7-18.7 22.5-27.1 38.5-27.1zM472.5 311.5c8 13.8 6.7 27.8-4.1 46.5l-16.6 24.5-28.2-41.8c-3.6-6.3-4.5-14.3-2.4-21.8s6.9-13.9 13.3-17.6c4.3-2.5 9-3.7 13.9-3.7 2.4 0 4.8 0.3 7.2 1 7.1 1.8 13.1 6.5 16.9 12.9zM468.2 473.9V588h-33.3V390h16.8v0.1l0.1-0.1h16.4V452.1zM429.3 357.2l18.9 28.6h-57.3c-15.3 0-27.8-12.5-27.8-27.8 0-15.4 12.5-27.8 27.8-27.8 16-0.1 24.8 8.3 38.4 27z" fill="#F59A9B" /><path d="M430.6 452.1V588H348c-5.8 0-10.5-4.7-10.5-10.5V452.1h93.1z" fill="#FFE085" /><path d="M430.6 390v57.9H328.4c-5.8 0-10.5-4.7-10.5-10.5v-36.8c0-5.8 4.7-10.5 10.5-10.5h102.2z" fill="#FFF0C2" /></svg>