<?xml version="1.0" ?>
<!-- Uploaded to: SVG Repo, www.svgrepo.com, Generator: SVG Repo Mixer Tools -->
<svg width="800px" height="800px" viewBox="0 0 24 24" xmlns="http://www.w3.org/2000/svg">
<defs>
<style>.cls-1{fill:#f94060;}.cls-2{fill:#ffeabb;}.cls-3,.cls-4{fill:#d62657;}.cls-4,.cls-6{fill-rule:evenodd;}.cls-5{fill:#f7bf75;}.cls-6{fill:#f1734d;}</style>
</defs>
<g data-name="Piggy Bank" id="Piggy_Bank">
<path class="cls-1" d="M13.12,6.93h-2.6a.38.38,0,0,1-.36-.26C9.65,5.09,7.77,4.28,7,4a.23.23,0,0,0-.31.22v2.5a.45.45,0,0,1-.31.42,4.27,4.27,0,0,0-2.93,3.34.41.41,0,0,1-.41.35H2.48a.49.49,0,0,0-.34.14.48.48,0,0,0-.14.34v2a.52.52,0,0,0,.14.35.49.49,0,0,0,.34.14H3.1a.43.43,0,0,1,.42.33A4.28,4.28,0,0,0,7,17.44a.27.27,0,0,1,.23.26V19a1,1,0,0,0,1.92,0V17.78a.27.27,0,0,1,.26-.27h6.52a.32.32,0,0,1,.23.09.34.34,0,0,1,.1.23V19a1,1,0,0,0,1.92,0V17.35a.61.61,0,0,1,.29-.52,4.23,4.23,0,0,0,2-3.58Z"/>
<path class="cls-2" d="M17.12,4.84a4.88,4.88,0,1,1-4.87,4.87,4.87,4.87,0,0,1,4.87-4.87"/>
<path class="cls-3" d="M9.37,17.51a.28.28,0,0,0-.24.27V19a1,1,0,0,1-1,1,1,1,0,0,1-.46-.11l0,0A1,1,0,0,0,8.16,19V17.78a.27.27,0,0,1,.27-.27Z"/>
<path class="cls-4" d="M20.47,13.26a4.66,4.66,0,0,1-1,.75,4.23,4.23,0,0,1-1.91,2.81.64.64,0,0,0-.31.56c0,.59,0,1.66,0,1.66a1,1,0,0,1-.48.81.94.94,0,0,0,.49.15,1,1,0,0,0,1-1V17.35a.61.61,0,0,1,.29-.52A4.22,4.22,0,0,0,20.47,13.26Z"/>
<path class="cls-4" d="M15.27,17.51h0Z"/>
<path class="cls-3" d="M6.72,4.21A.22.22,0,0,1,6.81,4,.26.26,0,0,1,7,4c.75.27,2.63,1.08,3.14,2.66a.38.38,0,0,0,.32.26H9.59a.42.42,0,0,1-.4-.3A4.5,4.5,0,0,0,6.71,4.28h0S6.74,4.23,6.72,4.21Z"/>
<path class="cls-5" d="M17.08,4.84a4.62,4.62,0,0,0-1.64.3h.2a4.58,4.58,0,0,1,0,9.16h-.2a4.88,4.88,0,1,0,1.68-9.45h0"/>
<path class="cls-6" d="M16.63,7.46v-.2a.5.5,0,0,1,.5-.5.5.5,0,0,1,.5.5v.2a1.38,1.38,0,0,1,.5.32,1.51,1.51,0,0,1,.29.45.5.5,0,0,1-.26.65.51.51,0,0,1-.66-.26.41.41,0,0,0-.08-.13.45.45,0,0,0-.29-.12.4.4,0,1,0,0,.8,1.4,1.4,0,0,1,.5,2.71v.21a.5.5,0,0,1-.5.5.5.5,0,0,1-.5-.5v-.21a1.42,1.42,0,0,1-.48-.31,1.39,1.39,0,0,1-.31-.45.52.52,0,0,1,.27-.66.51.51,0,0,1,.65.27.38.38,0,0,0,.09.13.39.39,0,0,0,.27.11h0a.39.39,0,0,0,.39-.4.4.4,0,0,0-.4-.4,1.4,1.4,0,0,1-.5-2.71Z"/>
<path class="cls-4" d="M5.86,9.38V10a.5.5,0,0,0,.5.5.5.5,0,0,0,.5-.5V9.38a.5.5,0,0,0-.5-.5A.5.5,0,0,0,5.86,9.38Z"/>
</g>
</svg>