<?xml version="1.0" encoding="utf-8"?>
<!-- Uploaded to: SVG Repo, www.svgrepo.com, Generator: SVG Repo Mixer Tools -->
<svg width="800px" height="800px" viewBox="0 0 1024 1024" fill="#000000" class="icon"  version="1.1" xmlns="http://www.w3.org/2000/svg"><path d="M376.228 784.016c-4.414 0-8.078-3.578-8.078-8s3.5-8 7.922-8h0.156c4.42 0 8 3.578 8 8s-3.58 8-8 8zM440.224 720.02c-4.414 0-8.078-3.578-8.078-8s3.5-8 7.922-8h0.156c4.42 0 8 3.578 8 8s-3.58 8-8 8zM472.222 688.02c-4.414 0-8.078-3.578-8.078-7.998 0-4.422 3.5-8 7.922-8h0.156c4.42 0 8 3.578 8 8a7.998 7.998 0 0 1-8 7.998zM504.22 720.02c-4.414 0-8.078-3.578-8.078-8s3.5-8 7.922-8h0.156c4.42 0 8 3.578 8 8s-3.58 8-8 8zM504.22 656.024c-4.414 0-8.078-3.578-8.078-8s3.5-8 7.922-8h0.156c4.42 0 8 3.578 8 8s-3.58 8-8 8zM536.216 688.02c-4.406 0-8.078-3.578-8.078-7.998 0-4.422 3.5-8 7.922-8h0.156c4.422 0 8 3.578 8 8a7.994 7.994 0 0 1-8 7.998zM568.214 720.02c-4.406 0-8.078-3.578-8.078-8s3.5-8 7.922-8h0.156c4.42 0 7.998 3.578 7.998 8s-3.578 8-7.998 8zM408.226 752.016c-4.414 0-8.078-3.578-8.078-7.998 0-4.422 3.5-8 7.922-8h0.156c4.42 0 8 3.578 8 8a7.998 7.998 0 0 1-8 7.998zM440.224 784.016c-4.414 0-8.078-3.578-8.078-8s3.5-8 7.922-8h0.156c4.42 0 8 3.578 8 8s-3.58 8-8 8zM472.222 752.016c-4.414 0-8.078-3.578-8.078-7.998 0-4.422 3.5-8 7.922-8h0.156c4.42 0 8 3.578 8 8a7.998 7.998 0 0 1-8 7.998zM504.22 784.016c-4.414 0-8.078-3.578-8.078-8s3.5-8 7.922-8h0.156c4.42 0 8 3.578 8 8s-3.58 8-8 8zM536.216 752.016c-4.406 0-8.078-3.578-8.078-7.998 0-4.422 3.5-8 7.922-8h0.156c4.422 0 8 3.578 8 8a7.994 7.994 0 0 1-8 7.998zM568.214 784.016c-4.406 0-8.078-3.578-8.078-8s3.5-8 7.922-8h0.156c4.42 0 7.998 3.578 7.998 8s-3.578 8-7.998 8zM600.212 752.016c-4.406 0-8.078-3.578-8.078-7.998 0-4.422 3.5-8 7.922-8h0.156c4.422 0 8 3.578 8 8a7.994 7.994 0 0 1-8 7.998zM632.21 784.016c-4.406 0-8.078-3.578-8.078-8s3.5-8 7.922-8h0.156c4.42 0 7.998 3.578 7.998 8s-3.578 8-7.998 8zM600.212 816.012c-4.406 0-8.078-3.578-8.078-7.998 0-4.422 3.5-8 7.922-8h0.156c4.422 0 8 3.578 8 8a7.994 7.994 0 0 1-8 7.998zM664.208 816.012c-4.406 0-8.078-3.578-8.078-7.998 0-4.422 3.5-8 7.922-8h0.156c4.422 0 8 3.578 8 8a7.994 7.994 0 0 1-8 7.998z" fill="" /><path d="M487.744 1024c-137.1 0-455.972-13.25-455.972-135.992 0-4.422 3.578-8 8-8 4.422 0 8 3.578 8 8 0 88.464 227.276 119.992 439.972 119.992 40.88 0 156.748-29.356 269.522-68.292 124.242-42.888 210.19-85.496 218.97-108.542-12.89-15.062-188.442-3.438-343.462 16.782a8 8 0 1 1-2.062-15.874c77.776-10.14 333.556-40.826 358.416-9.36 3.234 4.11 3.968 9.14 2.062 14.14C966.314 902.148 575.276 1024 487.744 1024z" fill="" /><path d="M375.75 896.008h-111.994c-4.42 0-8-3.578-8-8s3.578-8 8-8h111.994c56.246 0 199.352-27.264 215.9-40.808-0.468-4.906-2.844-9.282-7.218-13.328-33.216-30.686-160.004-27.936-206.048-24.294a7.22 7.22 0 0 1-1.632-0.032c-2.304-0.312-231.612-28.28-306.452 37.716-15.162 13.374-22.53 29.326-22.53 48.746 0 4.422-3.578 8-8 8-4.42 0-8-3.578-8-8 0-23.952 9.406-44.386 27.952-60.746 78.682-69.356 300.45-43.872 318.214-41.684 14.42-1.11 173.338-12.094 217.336 28.542 8.282 7.624 12.468 16.672 12.468 26.89 0.004 30.124-197.124 54.998-231.99 54.998z" fill="" /><path d="M711.736 816.012a7.95 7.95 0 0 1-5.656-2.344L498.086 605.682a8 8 0 0 1 11.312-11.31l207.994 207.986a7.996 7.996 0 0 1-5.656 13.654z" fill="" /><path d="M343.752 768.016a8 8 0 0 1-5.656-13.656l159.99-159.988a8 8 0 0 1 11.312 11.31l-159.99 159.99a7.974 7.974 0 0 1-5.656 2.344z" fill="" /><path d="M536.232 511.968a7.926 7.926 0 0 1-4.782-1.594 7.974 7.974 0 0 1-1.61-11.186c80.746-108.15 161.928-114.9 165.334-115.134 4.344-0.438 8.202 3.016 8.53 7.406a8.028 8.028 0 0 1-7.404 8.562c-0.766 0.046-77.636 6.952-153.646 108.728a7.994 7.994 0 0 1-6.422 3.218z" fill="" /><path d="M649.458 511.968c-33.466 0-64.34-18.14-80.604-47.34-11.984-21.5-14.86-46.388-8.14-70.074 6.75-23.67 22.31-43.31 43.81-55.294 27.186-15.14 92.65-24.186 140.24-24.186 54.138 0 62.152 10.766 64.792 14.296 3.39 4.562 4.172 10.716 2.422 18.858-8.28 38.544-79.806 130.93-117.742 152.068a92.14 92.14 0 0 1-44.778 11.672z m95.308-180.894c-51.09 0-110.524 9.936-132.46 22.154-17.78 9.906-30.624 26.138-36.186 45.7-5.576 19.578-3.188 40.138 6.718 57.918 13.438 24.124 38.966 39.122 66.622 39.122 12.876 0 25.672-3.344 36.998-9.64 44.154-24.624 117.088-133.29 110.212-147.506-1.562-2.076-14.078-7.748-51.904-7.748z" fill="" /><path d="M397.186 479.206c-9.624 0-18.998-1.984-27.866-5.906-30.374-13.42-103.572-92.682-96.456-116.93 3.82-13.032 29.178-19.64 75.386-19.64 25.828 0 59.584 2.704 76.854 10.312 34.81 15.406 50.616 56.232 35.256 91.042-11.052 24.982-35.848 41.122-63.174 41.122z m-48.934-126.478c-40.076 0-57.964 5.954-60.356 8.828-1.156 12.06 57.098 83.51 87.894 97.12a52.564 52.564 0 0 0 21.396 4.53c21 0 40.052-12.406 48.536-31.592 11.804-26.734-0.344-58.106-27.076-69.932-12.162-5.36-40.45-8.954-70.394-8.954z" fill="" /><path d="M472.252 480.034a7.998 7.998 0 0 1-7.29-4.688c-28.936-63.45-88.408-61.918-88.9-61.808-3.852 0.032-8.124-3.266-8.304-7.688a8.02 8.02 0 0 1 7.68-8.312c2.774-0.078 70.73-1.936 104.086 71.182a8.01 8.01 0 0 1-3.96 10.594 8.062 8.062 0 0 1-3.312 0.72z" fill="" /><path d="M503.376 240.486c-66.3 0-120.244-53.934-120.244-120.244S437.076 0 503.376 0c66.308 0 120.242 53.934 120.242 120.242s-53.934 120.244-120.242 120.244z m0-224.486c-57.482 0-104.244 46.762-104.244 104.244s46.762 104.244 104.244 104.244c57.464 0 104.244-46.762 104.244-104.244S560.84 16 503.376 16z" fill="" /><path d="M503.376 272.234c-66.3 0-120.244-53.934-120.244-120.244 0-4.42 3.578-8 8-8 4.422 0 8 3.578 8 8 0 57.482 46.762 104.244 104.244 104.244 57.464 0 104.244-46.762 104.244-104.244 0-4.42 3.562-8 7.998-8 4.406 0 8 3.578 8 8 0 66.308-53.934 120.244-120.242 120.244z" fill="" /><path d="M615.618 159.99a7.984 7.984 0 0 1-7.998-8V120.242c0-4.42 3.562-8 7.998-8 4.406 0 8 3.578 8 8v31.748c0 4.422-3.594 8-8 8zM391.132 159.99c-4.42 0-8-3.578-8-8V120.242c0-4.42 3.578-8 8-8 4.422 0 8 3.578 8 8v31.748c0 4.422-3.578 8-8 8zM503.626 175.99c-4.422 0-8-3.578-8-8V71.996c0-4.422 3.578-8 8-8 4.42 0 8 3.578 8 8v95.994a7.998 7.998 0 0 1-8 8z" fill="" /><path d="M503.376 272.234c-4.422 0-8-3.578-8-8v-31.748c0-4.422 3.578-8 8-8s8 3.578 8 8v31.748c0 4.422-3.578 8-8 8z" fill="" /><path d="M567.372 252.188c-4.438 0-8-3.578-8-8v-31.732c0-4.42 3.562-8 8-8a8.004 8.004 0 0 1 7.998 8v31.732c0 4.422-3.592 8-7.998 8z" fill="" /><path d="M455.378 261.468c-4.42 0-8-3.578-8-8V221.72c0-4.422 3.578-8 8-8 4.422 0 8 3.578 8 8v31.748c0 4.422-3.578 8-8 8z" fill="" /><path d="M504.244 576.028c-4.422 0-8-3.578-8-8V311.98c0-4.42 3.578-8 8-8 4.42 0 8 3.578 8 8v256.046a8 8 0 0 1-8 8.002z" fill="" /><path d="M504.244 319.98a8 8 0 0 1-5.656-13.656l15.998-16a8 8 0 0 1 11.312 0 7.984 7.984 0 0 1 0 11.312l-15.998 16a7.972 7.972 0 0 1-5.656 2.344z" fill="" /><path d="M504.244 319.98a7.976 7.976 0 0 1-5.656-2.344l-16-16a8 8 0 1 1 11.312-11.312l16 16a8 8 0 0 1-5.656 13.656z" fill="" /></svg>