<svg xmlns="http://www.w3.org/2000/svg" viewBox="0 0 512 512" id="truck"><path d="M407.224 301.367c-35.435 0-64.27 28.835-64.27 64.27 0 35.435 28.83 64.27 64.27 64.27s64.27-28.83 64.27-64.27-28.835-64.27-64.27-64.27zm0 96.13c-17.574 0-31.865-14.291-31.865-31.865s14.291-31.865 31.865-31.865c17.569 0 31.86 14.291 31.86 31.865-.001 17.574-14.291 31.865-31.86 31.865zm-275.984-96.13c-35.44 0-64.27 28.835-64.27 64.27 0 35.435 28.83 64.27 64.27 64.27s64.27-28.835 64.27-64.27c0-35.435-28.829-64.27-64.27-64.27zm0 96.13c-17.574 0-31.865-14.291-31.865-31.865s14.296-31.865 31.865-31.865 31.865 14.291 31.865 31.865c0 17.574-14.29 31.865-31.865 31.865z"></path><path d="m509.786 223.514-46.447-79.392a16.208 16.208 0 0 0-13.988-8.02H310.008v32.405h130.047l39.54 67.581v113.347h-24.304v32.405h40.506c8.949 0 16.203-7.253 16.202-16.203V231.696a16.176 16.176 0 0 0-2.213-8.182zM178.768 349.435h180.928v32.405H178.768z"></path><path d="M310.008 82.093H16.203C7.253 82.093 0 89.346 0 98.295v267.342c0 8.949 7.253 16.203 16.203 16.203h60.489v-32.405H32.405V114.498h261.401v251.139h32.405V98.295c0-8.949-7.253-16.202-16.203-16.202z"></path><path d="M310.008 216.574h185.784v32.405H310.008zM245.198 146.363h-93.975c-8.949 0-16.203 7.253-16.203 16.203 0 8.949 7.253 16.203 16.203 16.203h93.975c8.949 0 16.203-7.253 16.203-16.203s-7.253-16.203-16.203-16.203zm0 57.789H80.473c-8.949 0-16.203 7.253-16.203 16.203s7.253 16.203 16.203 16.203h164.726c8.949 0 16.203-7.253 16.203-16.203s-7.254-16.203-16.204-16.203zm0 57.249h-44.287c-8.949 0-16.203 7.253-16.203 16.203 0 8.949 7.253 16.203 16.203 16.203h44.287c8.949 0 16.203-7.253 16.203-16.203s-7.253-16.203-16.203-16.203z"></path></svg>