<svg xmlns="http://www.w3.org/2000/svg" viewBox="0 0 24 24" id="love"><path d="M12,21.67a3,3,0,0,1-2.12-.88l-6.61-6.6A7.71,7.71,0,0,1,1.4,6.06,5.41,5.41,0,0,1,5.71,2.38,6.93,6.93,0,0,1,12,5.46a6.82,6.82,0,0,1,6.27-3.08A5.41,5.41,0,0,1,22.6,6.06h0a7.71,7.71,0,0,1-1.87,8.13l-6.61,6.6A3,3,0,0,1,12,21.67ZM6.44,4.33a3.44,3.44,0,0,0-.46,0A3.45,3.45,0,0,0,3.27,6.77a5.67,5.67,0,0,0,1.42,6l6.6,6.61a1,1,0,0,0,1.42,0l6.6-6.61a5.67,5.67,0,0,0,1.42-6h0A3.45,3.45,0,0,0,18,4.36a4.94,4.94,0,0,0-4.43,2.29,2,2,0,0,1-3.18,0A5.15,5.15,0,0,0,6.44,4.33Z" data-name="Layer 2"></path></svg>